M48
; DRILL file {KiCad 7.0.9} date Sunday, March 10, 2024 at 01:22:26 AM
; FORMAT={-:-/ absolute / inch / decimal}
; #@! TF.CreationDate,2024-03-10T01:22:26+00:00
; #@! TF.GenerationSoftware,Kicad,Pcbnew,7.0.9
; #@! TF.FileFunction,Plated,1,4,PTH
FMAT,2
INCH
; #@! TA.AperFunction,Plated,PTH,ViaDrill
T1C0.0157
; #@! TA.AperFunction,Plated,PTH,ComponentDrill
T2C0.0236
; #@! TA.AperFunction,Plated,PTH,ComponentDrill
T3C0.0315
; #@! TA.AperFunction,Plated,PTH,ComponentDrill
T4C0.0354
; #@! TA.AperFunction,Plated,PTH,ComponentDrill
T5C0.0394
%
G90
G05
T1
X4.1362Y-3.9171
X4.1403Y-2.9841
X4.1601Y-3.9629
X4.1684Y-4.7072
X4.1762Y-4.2208
X4.2029Y-4.7864
X4.2162Y-3.9172
X4.2328Y-4.819
X4.263Y-4.0165
X4.2654Y-2.8506
X4.2693Y-3.9399
X4.2794Y-4.1926
X4.3014Y-4.5243
X4.3076Y-4.8316
X4.3175Y-4.6163
X4.3336Y-4.0537
X4.3632Y-4.9486
X4.3695Y-4.2855
X4.3771Y-3.5682
X4.4255Y-4.0786
X4.4289Y-3.4109
X4.4389Y-2.7886
X4.4946Y-2.4077
X4.4998Y-4.1051
X4.5188Y-3.7293
X4.5238Y-2.5624
X4.5395Y-5.2802
X4.5724Y-2.9584
X4.5785Y-4.4392
X4.5801Y-2.8324
X4.5853Y-2.7699
X4.589Y-2.5749
X4.5913Y-4.8609
X4.5955Y-3.1754
X4.6225Y-4.5209
X4.6309Y-3.1466
X4.6408Y-5.1327
X4.6464Y-3.848
X4.6538Y-2.2481
X4.6538Y-3.4441
X4.6589Y-3.792
X4.6641Y-2.9317
X4.6768Y-3.1304
X4.6778Y-3.9459
X4.6795Y-4.2765
X4.681Y-5.1581
X4.7052Y-3.569
X4.7245Y-3.8259
X4.7305Y-3.1893
X4.7439Y-5.1534
X4.7708Y-3.2668
X4.7904Y-4.6764
X4.8101Y-4.4115
X4.811Y-4.5353
X4.8674Y-2.5742
X4.9019Y-4.1139
X4.9083Y-2.999
X4.9133Y-4.6053
X4.9271Y-5.1136
X4.9373Y-4.9651
X4.9484Y-5.1867
X4.9858Y-4.9193
X5.0052Y-4.8039
X5.039Y-2.9017
X5.0513Y-2.3045
X5.0673Y-4.6852
X5.0713Y-4.6438
X5.1173Y-4.6673
X5.1244Y-3.1901
X5.1273Y-5.3048
X5.1326Y-5.2296
X5.1383Y-3.0384
X5.1738Y-5.1379
X5.209Y-5.2852
X5.2214Y-5.0042
X5.2267Y-2.5418
X5.2366Y-5.2173
X5.2414Y-5.1197
X5.2467Y-5.175
X5.2482Y-3.0231
X5.2543Y-2.9653
X5.2843Y-5.1346
X5.2884Y-3.4295
X5.3214Y-2.8901
X5.3245Y-5.0883
X5.3849Y-4.3561
X5.3905Y-2.9624
X5.4304Y-3.0168
X5.4413Y-3.5669
X5.4546Y-2.8323
X5.5192Y-4.84
X5.521Y-4.1488
X5.5243Y-4.4128
X5.5244Y-2.9593
X5.5456Y-2.8929
X5.6161Y-3.2202
X5.6315Y-4.3078
X5.6324Y-4.2136
X5.6432Y-4.5115
X5.6474Y-4.8523
X5.6819Y-4.2769
X5.6878Y-4.5019
X5.7104Y-4.1991
X5.7363Y-2.9455
X5.7373Y-4.1326
X5.7422Y-4.9736
X5.7914Y-4.0915
X5.9613Y-4.1294
X5.9973Y-4.1074
X6.0159Y-3.1988
X6.0425Y-3.8033
X6.046Y-1.9363
X6.0508Y-5.1642
X6.1721Y-1.95
X6.2058Y-4.2207
X6.2334Y-2.7361
X6.2578Y-4.1664
X6.3449Y-3.0542
X6.444Y-3.1194
X6.5425Y-4.2449
X6.5701Y-4.5059
T3
X4.8602Y-2.748
X4.8602Y-2.848
X4.8602Y-2.948
X4.8602Y-3.048
X4.8602Y-3.148
X4.8602Y-3.248
X4.8602Y-3.348
X4.8602Y-3.448
X4.8602Y-3.548
X4.8602Y-3.648
X4.8602Y-3.748
X4.8642Y-4.2567
X4.8642Y-4.3567
X4.8642Y-4.4567
X4.8642Y-4.5567
X4.8642Y-4.6567
X4.8642Y-4.7567
X4.9602Y-2.648
X4.9602Y-2.748
X4.9602Y-2.848
X4.9602Y-2.948
X4.9602Y-3.048
X4.9602Y-3.148
X4.9602Y-3.248
X4.9602Y-3.348
X4.9602Y-3.448
X4.9602Y-3.548
X4.9602Y-3.648
X4.9602Y-3.748
X4.9602Y-3.848
X4.9642Y-4.1567
X4.9642Y-4.2567
X4.9642Y-4.3567
X4.9642Y-4.4567
X4.9642Y-4.5567
X4.9642Y-4.6567
X4.9642Y-4.7567
X4.9642Y-4.8567
X5.0602Y-2.648
X5.0602Y-2.748
X5.0602Y-3.748
X5.0602Y-3.848
X5.0642Y-4.1567
X5.0642Y-4.2567
X5.0642Y-4.7567
X5.0642Y-4.8567
X5.1602Y-2.648
X5.1602Y-2.748
X5.1602Y-3.748
X5.1602Y-3.848
X5.1642Y-4.1567
X5.1642Y-4.2567
X5.1642Y-4.7567
X5.1642Y-4.8567
X5.2602Y-2.648
X5.2602Y-2.748
X5.2602Y-3.748
X5.2602Y-3.848
X5.2642Y-4.1567
X5.2642Y-4.2567
X5.2642Y-4.7567
X5.2642Y-4.8567
X5.3602Y-2.648
X5.3602Y-2.748
X5.3602Y-3.748
X5.3602Y-3.848
X5.3642Y-4.1567
X5.3642Y-4.2567
X5.3642Y-4.7567
X5.3642Y-4.8567
X5.4602Y-2.648
X5.4602Y-2.748
X5.4602Y-3.748
X5.4602Y-3.848
X5.4642Y-4.1567
X5.4642Y-4.2567
X5.4642Y-4.3567
X5.4642Y-4.4567
X5.4642Y-4.5567
X5.4642Y-4.6567
X5.4642Y-4.7567
X5.4642Y-4.8567
X5.5602Y-2.648
X5.5602Y-2.748
X5.5602Y-3.748
X5.5602Y-3.848
X5.5642Y-4.2567
X5.5642Y-4.3567
X5.5642Y-4.4567
X5.5642Y-4.5567
X5.5642Y-4.6567
X5.5642Y-4.7567
X5.6602Y-2.648
X5.6602Y-2.748
X5.6602Y-3.748
X5.6602Y-3.848
X5.7602Y-2.648
X5.7602Y-2.748
X5.7602Y-3.748
X5.7602Y-3.848
X5.8016Y-4.2
X5.8602Y-2.648
X5.8602Y-2.748
X5.8602Y-3.748
X5.8602Y-3.848
X5.9Y-4.2
X5.9602Y-2.648
X5.9602Y-2.748
X5.9602Y-2.848
X5.9602Y-2.948
X5.9602Y-3.048
X5.9602Y-3.148
X5.9602Y-3.248
X5.9602Y-3.348
X5.9602Y-3.448
X5.9602Y-3.548
X5.9602Y-3.648
X5.9602Y-3.748
X5.9602Y-3.848
X6.0016Y-4.2
X6.0602Y-2.748
X6.0602Y-2.848
X6.0602Y-2.948
X6.0602Y-3.048
X6.0602Y-3.148
X6.0602Y-3.248
X6.0602Y-3.348
X6.0602Y-3.448
X6.0602Y-3.548
X6.0602Y-3.648
X6.0602Y-3.748
X6.1Y-4.2
X6.3047Y-3.45
X6.3472Y-2.4756
X6.3472Y-2.8756
X6.3803Y-4.1528
X6.3803Y-4.5528
X6.4031Y-3.45
X6.5126Y-4.1528
X6.5126Y-4.5528
X6.5972Y-3.563
X6.6957Y-3.563
T4
X6.6Y-2.6
X6.7Y-2.6
T5
X4.4Y-2.7402
X4.4Y-2.8402
X4.4Y-2.9402
X4.4Y-3.0402
X4.4Y-3.1402
X4.4Y-3.2402
X4.4Y-3.3402
X4.4Y-3.8
X4.4Y-3.9
X4.4Y-4.3685
X4.4Y-4.4685
X4.4Y-4.5685
X4.4Y-4.6685
X4.4Y-4.7685
X4.5Y-2.7402
X4.5Y-2.8402
X4.5Y-2.9402
X4.5Y-3.0402
X4.5Y-3.1402
X4.5Y-3.2402
X4.5Y-3.3402
X4.5Y-4.3685
X4.5Y-4.4685
X4.5Y-4.5685
X4.5Y-4.6685
X4.5Y-4.7685
X4.5846Y-2.0839
X4.5846Y-2.1839
X4.5846Y-5.3508
X4.5846Y-5.4508
X4.6846Y-2.0839
X4.6846Y-2.1839
X4.6846Y-5.3508
X4.6846Y-5.4508
X4.7846Y-2.0839
X4.7846Y-2.1839
X4.7846Y-5.3508
X4.7846Y-5.4508
X4.8846Y-2.0839
X4.8846Y-2.1839
X4.8846Y-5.3508
X4.8846Y-5.4508
X4.9846Y-2.0839
X4.9846Y-2.1839
X4.9846Y-5.3508
X4.9846Y-5.4508
X5.0846Y-2.0839
X5.0846Y-2.1839
X5.0846Y-5.3508
X5.0846Y-5.4508
X5.1846Y-2.0839
X5.1846Y-2.1839
X5.1846Y-5.3508
X5.1846Y-5.4508
X5.2846Y-2.0839
X5.2846Y-2.1839
X5.2846Y-5.3508
X5.2846Y-5.4508
X5.3846Y-2.0839
X5.3846Y-2.1839
X5.3846Y-5.3508
X5.3846Y-5.4508
X5.4846Y-2.0839
X5.4846Y-2.1839
X5.4846Y-5.3508
X5.4846Y-5.4508
X5.5846Y-2.0839
X5.5846Y-2.1839
X5.5846Y-5.3508
X5.5846Y-5.4508
X5.6846Y-2.0839
X5.6846Y-2.1839
X5.6846Y-5.3508
X5.6846Y-5.4508
X5.7846Y-2.0839
X5.7846Y-2.1839
X5.7846Y-5.3508
X5.7846Y-5.4508
X5.8846Y-2.0839
X5.8846Y-2.1839
X5.8846Y-5.3508
X5.8846Y-5.4508
X5.9229Y-4.6717
X5.9846Y-2.0839
X5.9846Y-2.1839
X5.9846Y-5.3508
X5.9846Y-5.4508
X6.0725Y-4.6717
X6.0846Y-2.0839
X6.0846Y-2.1839
X6.0846Y-5.3508
X6.0846Y-5.4508
X6.5Y-4.7
X6.5894Y-2.9669
X6.5894Y-3.0669
X6.5894Y-3.1669
X6.5894Y-3.2669
X6.5894Y-3.3669
X6.6Y-4.7
X6.6894Y-2.9669
X6.6894Y-3.0669
X6.6894Y-3.1669
X6.6894Y-3.2669
X6.6894Y-3.3669
X6.7Y-4.7
T2
G00X6.6752Y-4.2087
M15
G01X6.6319Y-4.2087
M16
G05
G00X6.6752Y-4.5488
M15
G01X6.6319Y-4.5488
M16
G05
G00X6.8335Y-4.2087
M15
G01X6.802Y-4.2087
M16
G05
G00X6.8335Y-4.5488
M15
G01X6.802Y-4.5488
M16
G05
T5
G00X6.3425Y-3.8893
M15
G01X6.3425Y-3.8105
M16
G05
G00X6.5Y-3.6649
M15
G01X6.4213Y-3.6649
M16
G05
G00X6.5787Y-3.8893
M15
G01X6.5787Y-3.8105
M16
G05
T0
M30
